<svg width="32" height="32" viewBox="0 0 32 32" fill="none" xmlns="http://www.w3.org/2000/svg">
<path d="M16 2.66675C8.63596 2.66675 2.66663 8.63608 2.66663 16.0001C2.66663 23.3641 8.63596 29.3334 16 29.3334C23.364 29.3334 29.3333 23.3641 29.3333 16.0001C29.3333 8.63608 23.364 2.66675 16 2.66675Z" stroke="#4129F8" stroke-width="1.5" stroke-linecap="round" stroke-linejoin="round"/>
<path d="M5.69458 24.4613C5.69458 24.4613 8.66658 20.6667 15.9999 20.6667C23.3332 20.6667 26.3066 24.4613 26.3066 24.4613M15.9999 16C17.0608 16 18.0782 15.5786 18.8283 14.8284C19.5785 14.0783 19.9999 13.0609 19.9999 12C19.9999 10.9391 19.5785 9.92172 18.8283 9.17157C18.0782 8.42143 17.0608 8 15.9999 8C14.939 8 13.9216 8.42143 13.1715 9.17157C12.4213 9.92172 11.9999 10.9391 11.9999 12C11.9999 13.0609 12.4213 14.0783 13.1715 14.8284C13.9216 15.5786 14.939 16 15.9999 16Z" stroke="#4129F8" stroke-width="1.5" stroke-linecap="round" stroke-linejoin="round"/>
</svg>
