<svg width="22" height="30" viewBox="0 0 22 30" fill="none" xmlns="http://www.w3.org/2000/svg">
<path d="M20.7778 6.1111H3.76446C3.53762 6.10789 3.31378 6.05876 3.10644 5.96669C2.8991 5.87462 2.71256 5.7415 2.55806 5.57537C2.40356 5.40925 2.28431 5.21355 2.2075 5.00008C2.13069 4.78662 2.09791 4.55981 2.11113 4.33333C2.11003 3.88262 2.28015 3.44832 2.58709 3.11828C2.89403 2.78824 3.31486 2.5871 3.76446 2.55555H20.7778C21.0135 2.55555 21.2396 2.4619 21.4063 2.2952C21.573 2.1285 21.6667 1.90241 21.6667 1.66666C21.6667 1.43091 21.573 1.20482 21.4063 1.03812C21.2396 0.871421 21.0135 0.777771 20.7778 0.777771H3.76446C2.84321 0.810035 1.97049 1.19883 1.33038 1.86216C0.690261 2.5255 0.332789 3.4115 0.333354 4.33333C0.324754 4.47838 0.324754 4.62382 0.333354 4.76888C0.32479 4.83974 0.32479 4.91136 0.333354 4.98222V25.6667C0.332789 26.5885 0.690261 27.4745 1.33038 28.1378C1.97049 28.8012 2.84321 29.19 3.76446 29.2222H20.7778C21.0135 29.2222 21.2396 29.1286 21.4063 28.9619C21.573 28.7952 21.6667 28.5691 21.6667 28.3333V7.06222C21.6672 6.82038 21.5756 6.58744 21.4105 6.41075C21.2453 6.23407 21.0191 6.12692 20.7778 6.1111ZM19.8889 27.4444H3.76446C3.31486 27.4129 2.89403 27.2118 2.58709 26.8817C2.28015 26.5517 2.11003 26.1174 2.11113 25.6667V7.48888C2.61654 7.7677 3.1875 7.90583 3.76446 7.88888H19.8889V27.4444Z" fill="#4F44D0"/>
</svg>
