<svg width="28" height="24" viewBox="0 0 28 24" fill="none" xmlns="http://www.w3.org/2000/svg">
<path d="M23 1H5C3.93913 1 2.92172 1.42143 2.17157 2.17157C1.42143 2.92172 1 3.93913 1 5V15C1 16.0609 1.42143 17.0783 2.17157 17.8284C2.92172 18.5786 3.93913 19 5 19H16L22 23V19H23C24.0609 19 25.0783 18.5786 25.8284 17.8284C26.5786 17.0783 27 16.0609 27 15V5C27 3.93913 26.5786 2.92172 25.8284 2.17157C25.0783 1.42143 24.0609 1 23 1Z" stroke="#4F44D0" stroke-width="1.5" stroke-linecap="round" stroke-linejoin="round"/>
<path d="M8 11C8 11.2652 7.89464 11.5196 7.70711 11.7071C7.51957 11.8946 7.26522 12 7 12C6.73478 12 6.48043 11.8946 6.29289 11.7071C6.10536 11.5196 6 11.2652 6 11C6 10.7348 6.10536 10.4804 6.29289 10.2929C6.48043 10.1054 6.73478 10 7 10C7.26522 10 7.51957 10.1054 7.70711 10.2929C7.89464 10.4804 8 10.7348 8 11ZM14 11C14 11.2652 13.8946 11.5196 13.7071 11.7071C13.5196 11.8946 13.2652 12 13 12C12.7348 12 12.4804 11.8946 12.2929 11.7071C12.1054 11.5196 12 11.2652 12 11C12 10.7348 12.1054 10.4804 12.2929 10.2929C12.4804 10.1054 12.7348 10 13 10C13.2652 10 13.5196 10.1054 13.7071 10.2929C13.8946 10.4804 14 10.7348 14 11ZM20 11C20 11.2652 19.8946 11.5196 19.7071 11.7071C19.5196 11.8946 19.2652 12 19 12C18.7348 12 18.4804 11.8946 18.2929 11.7071C18.1054 11.5196 18 11.2652 18 11C18 10.7348 18.1054 10.4804 18.2929 10.2929C18.4804 10.1054 18.7348 10 19 10C19.2652 10 19.5196 10.1054 19.7071 10.2929C19.8946 10.4804 20 10.7348 20 11Z" stroke="#4F44D0" stroke-width="1.5" stroke-linecap="round" stroke-linejoin="round"/>
</svg>
