<svg width="12" height="12" viewBox="0 0 12 12" fill="none" xmlns="http://www.w3.org/2000/svg">
<path d="M5.25 11.2514C4.95442 11.2523 4.6616 11.1944 4.38854 11.0812C4.11547 10.9681 3.86759 10.8018 3.65925 10.5922L0.65925 7.59216C0.234 7.16766 0 6.60216 0 6.00141C0 5.40066 0.234 4.83516 0.65925 4.40991C1.509 3.56016 2.991 3.56016 3.84075 4.40991L4.73175 5.30091L7.0335 1.15866C7.24934 0.769341 7.57584 0.45282 7.97168 0.249174C8.36751 0.0455286 8.81487 -0.0360843 9.25711 0.0146689C9.69936 0.0654221 10.1166 0.246259 10.456 0.534283C10.7954 0.822308 11.0417 1.20457 11.1637 1.63266C11.2459 1.91677 11.2708 2.21439 11.237 2.50822C11.2031 2.80204 11.1112 3.08619 10.9665 3.34416L7.2165 10.0942C7.02075 10.4441 6.73547 10.7357 6.38992 10.939C6.04436 11.1424 5.65095 11.2502 5.25 11.2514ZM2.25 5.25141C2.049 5.25141 1.8615 5.32941 1.71975 5.47116C1.578 5.61291 1.5 5.80041 1.5 6.00141C1.5 6.20241 1.578 6.38991 1.71975 6.53166L4.71975 9.53166C4.80195 9.61343 4.90197 9.67507 5.01196 9.71176C5.12195 9.74844 5.23894 9.75918 5.35377 9.74313C5.4686 9.72708 5.57816 9.68467 5.67388 9.61923C5.76959 9.55379 5.84887 9.46709 5.9055 9.36591L9.6555 2.61591C9.70365 2.52998 9.73427 2.43536 9.7456 2.33752C9.75693 2.23968 9.74874 2.14056 9.7215 2.04591C9.69461 1.95086 9.64906 1.86211 9.58751 1.78485C9.52596 1.70759 9.44964 1.64336 9.363 1.59591C9.18875 1.5029 8.98517 1.48126 8.79527 1.53556C8.60536 1.58986 8.44399 1.71585 8.34525 1.88691L5.0775 7.76766L2.781 5.47116C2.71138 5.40129 2.62862 5.3459 2.53748 5.30818C2.44634 5.27046 2.34863 5.25117 2.25 5.25141Z" fill="white"/>
</svg>
