<svg width="24" height="24" viewBox="0 0 24 24" fill="none" xmlns="http://www.w3.org/2000/svg">
<path fill-rule="evenodd" clip-rule="evenodd" d="M0 4C0 2.93913 0.421427 1.92172 1.17157 1.17157C1.92172 0.421427 2.93913 0 4 0H7C8.06087 0 9.07828 0.421427 9.82843 1.17157C10.5786 1.92172 11 2.93913 11 4V7C11 8.06087 10.5786 9.07828 9.82843 9.82843C9.07828 10.5786 8.06087 11 7 11H4C2.93913 11 1.92172 10.5786 1.17157 9.82843C0.421427 9.07828 0 8.06087 0 7V4ZM13 4C13 2.93913 13.4214 1.92172 14.1716 1.17157C14.9217 0.421427 15.9391 0 17 0H20C21.0609 0 22.0783 0.421427 22.8284 1.17157C23.5786 1.92172 24 2.93913 24 4V7C24 8.06087 23.5786 9.07828 22.8284 9.82843C22.0783 10.5786 21.0609 11 20 11H17C15.9391 11 14.9217 10.5786 14.1716 9.82843C13.4214 9.07828 13 8.06087 13 7V4ZM0 17C0 15.9391 0.421427 14.9217 1.17157 14.1716C1.92172 13.4214 2.93913 13 4 13H7C8.06087 13 9.07828 13.4214 9.82843 14.1716C10.5786 14.9217 11 15.9391 11 17V20C11 21.0609 10.5786 22.0783 9.82843 22.8284C9.07828 23.5786 8.06087 24 7 24H4C2.93913 24 1.92172 23.5786 1.17157 22.8284C0.421427 22.0783 0 21.0609 0 20V17ZM13 17C13 15.9391 13.4214 14.9217 14.1716 14.1716C14.9217 13.4214 15.9391 13 17 13H20C21.0609 13 22.0783 13.4214 22.8284 14.1716C23.5786 14.9217 24 15.9391 24 17V20C24 21.0609 23.5786 22.0783 22.8284 22.8284C22.0783 23.5786 21.0609 24 20 24H17C15.9391 24 14.9217 23.5786 14.1716 22.8284C13.4214 22.0783 13 21.0609 13 20V17Z" fill="#4F44D0"/>
</svg>
