<svg width="25" height="16" viewBox="0 0 25 16" fill="none" xmlns="http://www.w3.org/2000/svg">
<path d="M12.5 4.8C11.5959 4.8 10.7287 5.13714 10.0894 5.73726C9.45008 6.33737 9.09091 7.15131 9.09091 8C9.09091 8.84869 9.45008 9.66263 10.0894 10.2627C10.7287 10.8629 11.5959 11.2 12.5 11.2C13.4041 11.2 14.2713 10.8629 14.9106 10.2627C15.5499 9.66263 15.9091 8.84869 15.9091 8C15.9091 7.15131 15.5499 6.33737 14.9106 5.73726C14.2713 5.13714 13.4041 4.8 12.5 4.8ZM12.5 13.3333C10.9931 13.3333 9.5479 12.7714 8.48235 11.7712C7.4168 10.771 6.81818 9.41449 6.81818 8C6.81818 6.58551 7.4168 5.22896 8.48235 4.22876C9.5479 3.22857 10.9931 2.66667 12.5 2.66667C14.0069 2.66667 15.4521 3.22857 16.5177 4.22876C17.5832 5.22896 18.1818 6.58551 18.1818 8C18.1818 9.41449 17.5832 10.771 16.5177 11.7712C15.4521 12.7714 14.0069 13.3333 12.5 13.3333ZM12.5 0C6.81818 0 1.96591 3.31733 0 8C1.96591 12.6827 6.81818 16 12.5 16C18.1818 16 23.0341 12.6827 25 8C23.0341 3.31733 18.1818 0 12.5 0Z" fill="#4129F8"/>
</svg>
