<svg width="25" height="21" viewBox="0 0 25 21" fill="none" xmlns="http://www.w3.org/2000/svg">
<path d="M12.3068 6.63158L15.9091 10.1242V9.94737C15.9091 9.06797 15.5499 8.22458 14.9106 7.60275C14.2713 6.98092 13.4041 6.63158 12.5 6.63158H12.3068ZM7.42045 7.51579L9.18182 9.22895C9.125 9.46105 9.09091 9.69316 9.09091 9.94737C9.09091 10.8268 9.45008 11.6702 10.0894 12.292C10.7287 12.9138 11.5959 13.2632 12.5 13.2632C12.75 13.2632 13 13.23 13.2386 13.1747L15 14.8879C14.2386 15.2526 13.3977 15.4737 12.5 15.4737C10.9931 15.4737 9.5479 14.8914 8.48235 13.8551C7.4168 12.8187 6.81818 11.413 6.81818 9.94737C6.81818 9.07421 7.04545 8.25632 7.42045 7.51579ZM1.13636 1.40368L3.72727 3.92368L4.23864 4.42105C2.36364 5.85789 0.886364 7.73684 0 9.94737C1.96591 14.7995 6.81818 18.2368 12.5 18.2368C14.2614 18.2368 15.9432 17.9053 17.4773 17.3084L17.9659 17.7726L21.2841 21L22.7273 19.5963L2.57955 0M12.5 4.42105C14.0069 4.42105 15.4521 5.00329 16.5177 6.03967C17.5832 7.07606 18.1818 8.4817 18.1818 9.94737C18.1818 10.6547 18.0341 11.34 17.7727 11.9589L21.1023 15.1974C22.8068 13.8158 24.1705 12.0032 25 9.94737C23.0341 5.09526 18.1818 1.65789 12.5 1.65789C10.9091 1.65789 9.38636 1.93421 7.95455 2.43158L10.4205 4.80789C11.0682 4.56474 11.7614 4.42105 12.5 4.42105Z" fill="#4129F8"/>
</svg>
