<svg width="25" height="21" viewBox="0 0 25 21" fill="none" xmlns="http://www.w3.org/2000/svg">
<path d="M8.2 12.2L11.4 15.4L17 9M1 2.6V18.6C1 19.0243 1.16857 19.4313 1.46863 19.7314C1.76869 20.0314 2.17565 20.2 2.6 20.2H21.8C22.2243 20.2 22.6313 20.0314 22.9314 19.7314C23.2314 19.4313 23.4 19.0243 23.4 18.6V5.8C23.4 5.37565 23.2314 4.96869 22.9314 4.66863C22.6313 4.36857 22.2243 4.2 21.8 4.2H12.2L9 1H2.6C2.17565 1 1.76869 1.16857 1.46863 1.46863C1.16857 1.76869 1 2.17565 1 2.6Z" stroke="#4F44D0" stroke-width="1.6"/>
</svg>
