<svg width="36" height="36" viewBox="0 0 36 36" fill="none" xmlns="http://www.w3.org/2000/svg">
<path d="M1.5 18H3.33333M18 1.5V3.33333M32.6667 18H34.5M6.26667 6.26667L7.55 7.55M29.7333 6.26667L28.45 7.55M13.7833 27.1667H22.2167M12.5 25.3333C10.9609 24.179 9.82394 22.5696 9.25029 20.7332C8.67664 18.8968 8.69534 16.9264 9.30374 15.1012C9.91213 13.2761 11.0794 11.6886 12.6402 10.5636C14.2009 9.43868 16.0761 8.83333 18 8.83333C19.9239 8.83333 21.7991 9.43868 23.3598 10.5636C24.9206 11.6886 26.0879 13.2761 26.6963 15.1012C27.3047 16.9264 27.3234 18.8968 26.7497 20.7332C26.1761 22.5696 25.0391 24.179 23.5 25.3333C22.7842 26.0419 22.2453 26.909 21.9268 27.8645C21.6083 28.82 21.5192 29.837 21.6667 30.8333C21.6667 31.8058 21.2804 32.7384 20.5927 33.4261C19.9051 34.1137 18.9725 34.5 18 34.5C17.0275 34.5 16.0949 34.1137 15.4073 33.4261C14.7196 32.7384 14.3333 31.8058 14.3333 30.8333C14.4808 29.837 14.3917 28.82 14.0732 27.8645C13.7547 26.909 13.2158 26.0419 12.5 25.3333Z" stroke="#1C17C0" stroke-width="2" stroke-linecap="round" stroke-linejoin="round"/>
</svg>
