<svg width="32" height="32" viewBox="0 0 32 32" fill="none" xmlns="http://www.w3.org/2000/svg">
<path d="M16 24C16.7293 24 17.4288 23.7103 17.9445 23.1945C18.4603 22.6788 18.75 21.9793 18.75 21.25C18.75 20.5207 18.4603 19.8212 17.9445 19.3055C17.4288 18.7897 16.7293 18.5 16 18.5C15.2707 18.5 14.5712 18.7897 14.0555 19.3055C13.5397 19.8212 13.25 20.5207 13.25 21.25C13.25 21.9793 13.5397 22.6788 14.0555 23.1945C14.5712 23.7103 15.2707 24 16 24ZM24.25 11.625C24.9793 11.625 25.6788 11.9147 26.1945 12.4305C26.7103 12.9462 27 13.6457 27 14.375V28.125C27 28.8543 26.7103 29.5538 26.1945 30.0695C25.6788 30.5853 24.9793 30.875 24.25 30.875H7.75C7.02065 30.875 6.32118 30.5853 5.80546 30.0695C5.28973 29.5538 5 28.8543 5 28.125V14.375C5 13.6457 5.28973 12.9462 5.80546 12.4305C6.32118 11.9147 7.02065 11.625 7.75 11.625H9.125V8.875C9.125 7.05164 9.84933 5.30295 11.1386 4.01364C12.428 2.72433 14.1766 2 16 2C16.9028 2 17.7968 2.17783 18.6309 2.52333C19.4651 2.86883 20.223 3.37524 20.8614 4.01364C21.4998 4.65204 22.0062 5.40994 22.3517 6.24405C22.6972 7.07816 22.875 7.97216 22.875 8.875V11.625H24.25ZM16 4.75C14.906 4.75 13.8568 5.1846 13.0832 5.95818C12.3096 6.73177 11.875 7.78098 11.875 8.875V11.625H20.125V8.875C20.125 7.78098 19.6904 6.73177 18.9168 5.95818C18.1432 5.1846 17.094 4.75 16 4.75Z" fill="#4129F8"/>
</svg>
