<svg id="Layer_1" data-name="Layer 1" xmlns="http://www.w3.org/2000/svg" viewBox="0 0 760.2 192.39"><defs><style>.cls-1{fill:#372b94;}</style></defs><path class="cls-1" d="M415.39,124.93q0-26.68,0-53.36c0-6.27.35-6.63,6.68-6.5,3.12.06,6.24.19,9.35.14,4.15-.06,5.31,1,5.34,5.2.08,12.9-1.21,25.77-.82,38.68.16,5.4.09,5.53,5.42,5.65,6.37.15,12.75,0,19.13.13,2.6.06,2.38-1.44,2.36-3.15q-.23-19.15-.38-38.29c-.06-7.72.31-8,7.85-8.28,15.82-.61,13-.29,13.37,12.85.87,28.37-.21,56.75-.21,85.13,0,5.69.5,11.39.57,17.09.05,4.54-1,5.48-5.49,5.54-4.2.06-8.41,0-12.6.17-3.09.13-2.72-2-2.71-3.83.05-9.78.14-19.55.22-29.32,0-4.62,0-9.24.16-13.85.11-2.86-1.05-3.8-3.85-3.73-6.24.16-12.49.2-18.73,0-3.56-.12-4.77,1.2-4.7,4.72.24,12.35.26,24.71.35,37.07a46.79,46.79,0,0,1-.15,4.88c-.26,2.67-1.57,4.12-4.53,3.94-3.66-.21-7.33-.11-11-.17-4.92-.09-5.65-.82-5.65-5.71q0-27.49,0-55Z"/><path class="cls-1" d="M284.49,186.49a57.17,57.17,0,0,1-20.24-3.71c-3.39-1.27-4.92-3.52-4.29-7.23a71.52,71.52,0,0,1,3.13-11.31c1-2.77,2.77-3.14,5.07-1.88a36.22,36.22,0,0,1,4,2.77,18.85,18.85,0,0,0,15.39,3.38c7.67-1.48,11.6-6.62,11.15-14.47a20.25,20.25,0,0,0-8.23-15.65,151.13,151.13,0,0,1-20.82-20c-9.56-10.75-11.21-24.79-4.24-37.6a32.31,32.31,0,0,1,33.66-16.16A68.85,68.85,0,0,1,307.69,67c3.4,1,4.4,3.41,3.32,6.65s-2.42,6.6-3.62,9.91c-1.33,3.64-2.73,4.3-6.05,2.29a17.41,17.41,0,0,0-10.76-2.91c-5.48.45-8.7,3.2-9.62,8.63A18.25,18.25,0,0,0,287,109.13c6.41,5.84,13.52,10.9,19.42,17.32,6.15,6.69,11.11,14,12.33,23.3,2.68,20.4-10.47,35.94-31.05,36.73C286.66,186.52,285.58,186.49,284.49,186.49Z"/><path class="cls-1" d="M335.3,125.68c.23-10.08,1.4-20,5.17-29.44,8-20.09,28.86-33.42,50.41-32,6.52.41,7.94,1.9,8,8.49,0,3.26-.07,6.52.06,9.77.1,2.62-1.05,3.24-3.46,2.85a48.6,48.6,0,0,0-15.37-.16c-8.08,1.25-14,5.54-18.19,12.32-10.37,16.66-9.31,44,2.24,59.81,5.44,7.47,13.11,9.59,21.82,9.16,2.84-.14,5.68-.47,8.49-.89,3.16-.47,5.06.26,4.8,3.94-.28,3.93-.44,7.86-.56,11.79-.07,2.37-1.36,3.21-3.53,3.6-30.07,5.39-55.14-13.17-58.67-43.38Q335.59,133.6,335.3,125.68Z"/><path class="cls-1" d="M710.41,125.73q0-27.27,0-54.55c0-5.5.63-6.13,6-6.14,3.39,0,6.81.24,10.17-.06s4.48,1.2,4.71,4.07c.15,1.89.26,3.79.3,5.69.54,28.36-.06,56.71-.07,85.07,0,5.37.34,5.55,5.52,5.38,6.36-.21,12.73-.21,19.09-.33,2.75-.05,4.25.78,4,4a115.41,115.41,0,0,0,0,13c.14,2.75-1,3.61-3.5,3.62-14,.06-27.94.08-41.91.26-3,0-3.62-1.16-3.61-3.87.08-18.72,0-37.44,0-56.16Z"/><path class="cls-1" d="M221.47,125.33c0-18.47.08-36.93-.07-55.39,0-4,1.39-5.38,5.25-5.08,3.37.26,6.78.08,10.17.19,4.86.15,5.86,1.15,6,6.11.13,4.48.2,9,.16,13.44-.28,31.51.32,63,.62,94.5,0,5-1.08,6.22-6.08,6.42-3.66.14-7.35-.1-11,.25s-5-.79-5-4.65c.16-18.59.07-37.19.07-55.79Z"/><path class="cls-1" d="M213.07,179.05,186.28,109.2Q167.64,60.62,149,12.05C146.2,4.86,141.15.2,133.14.12q-27.27-.25-54.56,0a13.51,13.51,0,0,0-13.24,9.1Q49.67,49.58,34.21,90c-2.89,7.52.18,12,8.16,12,12.62.05,25.24,0,37.86,0,10.62,0,10.58,0,14.32-10,3.24-8.6,6.58-17.17,10-26.13,2,1.44,2.26,3.13,2.83,4.59,3.27,8.47,6.48,17,9.73,25.45q16.67,43.47,33.3,86.94c.35.9,1.48,1.89.34,2.94-.94.85-2,.35-3.09.11-3.58-.81-4.79-3.68-5.93-6.65-7.3-19-14.56-38-21.93-56.92-4.17-10.73-13.24-17.07-24.79-17.16-16-.13-32-.33-48,.06-11.79.29-20.93,5.59-25.38,17-7,18.06-13.86,36.21-20.65,54.36-3.11,8.29,1.5,15.34,10.39,15.51,14,.27,28,.08,41.93.15,2.29,0,3.34-1,4.08-3.09,1.61-4.61,3.47-9.12,5.22-13.67q11.52-30,23.06-59.94c.65-1.68,1-3.82,3.49-4,11.44-.65,21,1.48,25.82,14.79,2,5.61,4.24,11.15,6.38,16.71q7.66,19.93,15.34,39.85c2.13,5.55,5.76,9.22,12,9.24,18.6.06,37.19.16,55.78,0C212.85,192.2,216.08,186.9,213.07,179.05Zm-10.65,7.4c-6.64,0-13.29,0-19.94,0-6.92,0-13.84-.09-20.76,0-2.54.05-3.83-.77-4.78-3.26q-33-86.38-66.2-172.7C89,6.1,89.16,5.92,94.15,5.92H130c7.72,0,11.14,2.27,13.89,9.42Q162.2,63,180.48,110.6q13.25,34.53,26.46,69.07C209.08,185.27,208.35,186.43,202.42,186.45Z"/><path class="cls-1" d="M585.71,97c-5.22-18-22.9-31.84-40.81-32S509.44,78,504.12,96.22a97.07,97.07,0,0,0,2.21,62.3c6,16,21.53,27,37.92,27.39,15.42.36,31.57-10.4,38.16-25.84,4.91-11.49,6.82-23.64,6.74-36.1A94.75,94.75,0,0,0,585.71,97Zm-21.58,57.58c-4,7.6-10.55,11.56-19,11.75s-15.65-3.23-19.15-10.74c-9.78-21-9.68-42.17,1.32-62.74A19.64,19.64,0,0,1,543.1,82.08c8.19-.77,14,3.53,18.41,9.79,7.35,10.31,8.35,22.33,8.86,33.93C570.09,136.15,568.81,145.76,564.13,154.59Z"/><path class="cls-1" d="M691.71,100.49c-4.57-19.89-21.93-34.89-41-35.41S614,78.23,608.61,98.21a97.14,97.14,0,0,0,2.8,60.35c6,16,21.61,27,38,27.36,15.58.33,31.72-10.6,38.29-26.27,4.77-11.4,6.65-23.41,6.56-35.74A100.86,100.86,0,0,0,691.71,100.49Zm-22.49,54.12c-4,7.6-10.58,11.54-19.06,11.73s-15.67-3.22-19.16-10.73c-9.81-21.11-9.76-42.46,1.55-63.1a19.41,19.41,0,0,1,16-10.47c8-.55,13.64,3.72,18,9.83,6,8.34,8.84,20.14,8.77,37C675.14,136.15,673.89,145.77,669.22,154.61Z"/></svg>