<svg width="22" height="23" viewBox="0 0 22 23" fill="none" xmlns="http://www.w3.org/2000/svg">
<path d="M22 11.2042C21.9999 11.4122 21.9429 11.6161 21.8355 11.793C21.7281 11.9699 21.5744 12.1129 21.3917 12.2059L1.59137 22.2903C1.40555 22.3848 1.19728 22.4237 0.990647 22.4026C0.784017 22.3815 0.587466 22.3013 0.423726 22.1712C0.259984 22.0411 0.135741 21.8664 0.0653677 21.6674C-0.00500771 21.4684 -0.0186414 21.2532 0.0260439 21.0466L2.17328 11.2042L0.0260448 1.36286C-0.0189019 1.15621 -0.0054665 0.940808 0.0647983 0.74161C0.135065 0.542411 0.259283 0.36756 0.423073 0.237301C0.586864 0.107042 0.783525 0.0267039 0.990288 0.00558884C1.19705 -0.0155262 1.40545 0.0234453 1.59137 0.117991L21.3917 10.2024C21.5744 10.2954 21.7281 10.4384 21.8355 10.6153C21.9429 10.7922 21.9999 10.9961 22 11.2042ZM4.18191 12.3247L2.67489 19.2336L16.2403 12.3247L4.18191 12.3247ZM16.2403 10.0837L2.67489 3.1747L4.18191 10.0837L16.2403 10.0837Z" fill="#1E1E1E"/>
</svg>
