<svg width="18" height="18" viewBox="0 0 18 18" fill="none" xmlns="http://www.w3.org/2000/svg">
<path fill-rule="evenodd" clip-rule="evenodd" d="M11.385 12.446C10.0371 13.5229 8.32808 14.0429 6.60885 13.8991C4.88962 13.7552 3.29072 12.9586 2.14051 11.6727C0.990315 10.3869 0.376137 8.70937 0.424123 6.9848C0.472109 5.26024 1.17862 3.6195 2.39854 2.39958C3.61846 1.17965 5.2592 0.473147 6.98376 0.425161C8.70833 0.377174 10.3858 0.991352 11.6717 2.14155C12.9576 3.29175 13.7542 4.89066 13.898 6.60989C14.0418 8.32912 13.5219 10.0382 12.445 11.386L17.601 16.541C17.6747 16.6097 17.7338 16.6925 17.7747 16.7845C17.8157 16.8765 17.8378 16.9758 17.8396 17.0765C17.8413 17.1772 17.8228 17.2772 17.7851 17.3706C17.7474 17.464 17.6912 17.5488 17.62 17.62C17.5488 17.6913 17.464 17.7474 17.3706 17.7851C17.2772 17.8228 17.1771 17.8414 17.0764 17.8396C16.9757 17.8378 16.8764 17.8158 16.7844 17.7748C16.6924 17.7338 16.6096 17.6747 16.541 17.601L11.385 12.446ZM3.45897 10.884C2.72501 10.15 2.22512 9.21483 2.02248 8.19677C1.81984 7.17872 1.92354 6.12344 2.32048 5.1643C2.71742 4.20517 3.38977 3.38523 4.25258 2.8081C5.11538 2.23098 6.12991 1.92258 7.16794 1.92189C8.20596 1.92119 9.2209 2.22822 10.0845 2.80418C10.9481 3.38014 11.6215 4.19917 12.0198 5.15778C12.418 6.11638 12.5231 7.17152 12.3218 8.18984C12.1206 9.20817 11.6219 10.144 10.889 10.879L10.884 10.884L10.879 10.888C9.89406 11.8706 8.55939 12.4221 7.16814 12.4214C5.77688 12.4206 4.44281 11.8677 3.45897 10.884Z" fill="black"/>
</svg>
