<svg width="18" height="17" viewBox="0 0 18 17" fill="none" xmlns="http://www.w3.org/2000/svg">
<path d="M6.86912 17L6.54531 14.4096C6.36991 14.3421 6.20477 14.2612 6.04988 14.1667C5.89499 14.0723 5.74307 13.9711 5.59412 13.8631L3.18579 14.875L0.959595 11.0298L3.04412 9.45124C3.03063 9.35679 3.02388 9.26586 3.02388 9.17843V8.632C3.02388 8.54403 3.03063 8.45282 3.04412 8.35838L0.959595 6.77981L3.18579 2.93457L5.59412 3.94647C5.74253 3.83854 5.89769 3.73735 6.0596 3.6429C6.2215 3.54846 6.3834 3.46751 6.54531 3.40005L6.86912 0.80957H11.3215L11.6453 3.40005C11.8207 3.46751 11.9861 3.54846 12.1415 3.6429C12.297 3.73735 12.4486 3.83854 12.5965 3.94647L15.0048 2.93457L17.231 6.77981L15.1465 8.35838C15.16 8.45282 15.1667 8.54403 15.1667 8.632V9.17762C15.1667 9.26559 15.1532 9.35679 15.1263 9.45124L17.2108 11.0298L14.9846 14.875L12.5965 13.8631C12.4481 13.9711 12.2929 14.0723 12.131 14.1667C11.9691 14.2612 11.8072 14.3421 11.6453 14.4096L11.3215 17H6.86912ZM8.28579 15.381H9.88459L10.1679 13.2358C10.5862 13.1278 10.9742 12.9694 11.332 12.7606C11.6898 12.5517 12.0169 12.2986 12.3132 12.0012L14.3167 12.831L15.106 11.4548L13.3655 10.1393C13.433 9.95044 13.4802 9.75157 13.5072 9.54271C13.5342 9.33386 13.5477 9.12122 13.5477 8.90481C13.5477 8.6884 13.5342 8.47603 13.5072 8.26771C13.4802 8.0594 13.433 7.86025 13.3655 7.67028L15.106 6.35481L14.3167 4.97862L12.3132 5.82862C12.0163 5.5183 11.6893 5.25871 11.332 5.04986C10.9748 4.841 10.5867 4.68233 10.1679 4.57386L9.90483 2.42862H8.30602L8.02269 4.57386C7.60444 4.68179 7.21667 4.84046 6.8594 5.04986C6.50213 5.25925 6.17482 5.51209 5.87745 5.80838L3.87388 4.97862L3.08459 6.35481L4.82507 7.65005C4.75761 7.85243 4.71039 8.05481 4.6834 8.25719C4.65642 8.45957 4.64293 8.67544 4.64293 8.90481C4.64293 9.12068 4.65642 9.32981 4.6834 9.53219C4.71039 9.73457 4.75761 9.93695 4.82507 10.1393L3.08459 11.4548L3.87388 12.831L5.87745 11.981C6.17428 12.2913 6.5016 12.5512 6.8594 12.7606C7.21721 12.97 7.60498 13.1284 8.02269 13.2358L8.28579 15.381ZM9.13579 11.7381C9.91833 11.7381 10.5862 11.4616 11.1394 10.9084C11.6925 10.3552 11.9691 9.68735 11.9691 8.90481C11.9691 8.12227 11.6925 7.45441 11.1394 6.90124C10.5862 6.34806 9.91833 6.07147 9.13579 6.07147C8.33975 6.07147 7.66839 6.34806 7.12169 6.90124C6.57499 7.45441 6.30191 8.12227 6.30245 8.90481C6.30299 9.68735 6.57634 10.3552 7.1225 10.9084C7.66866 11.4616 8.33975 11.7381 9.13579 11.7381Z" fill="#252424" fill-opacity="0.81"/>
</svg>
